<svg xmlns="http://www.w3.org/2000/svg" viewBox="5360 4596.063 30.981 70.637">
  <defs>
    <style>
      .cls-1 {
        fill: #c41230;
      }
    </style>
  </defs>
  <g id="Group_70" data-name="Group 70" transform="translate(5360 4596.063)">
    <path id="Path_92" data-name="Path 92" class="cls-1" d="M24.785,3.3H6.2L0,33.042H30.981Z" transform="translate(0 37.595)"/>
    <path id="Path_93" data-name="Path 93" class="cls-1" d="M13.193,33.46H9.475l2.479-28.5C11.953,2.479,8.236,0,7,0H7C4.518,0,.8,1.239.8,3.718L3.279,33.46H.8v6.2H13.193ZM7,2.479A3.957,3.957,0,0,1,10.714,6.2,3.957,3.957,0,0,1,7,9.914,3.957,3.957,0,0,1,3.279,6.2,3.957,3.957,0,0,1,7,2.479Z" transform="translate(9.114)"/>
    <path id="Path_94" data-name="Path 94" class="cls-1" d="M3.579,5.257A2.665,2.665,0,0,0,6.057,2.779,2.665,2.665,0,0,0,3.579.3,2.665,2.665,0,0,0,1.1,2.779,2.665,2.665,0,0,0,3.579,5.257Z" transform="translate(12.532 3.418)"/>
  </g>
</svg>
