<svg id="Capa_1" data-name="Capa 1" xmlns="http://www.w3.org/2000/svg" viewBox="0 0 486.62 353.35"><title>handshake</title><path d="M486.62,118v150s-32.11,6.33-38.72,7.16-27.32,7.52-42.34-6.91c-23.16-22.2-105.44-104-105.44-104s-14.19-13.92-37-1.89c-20.91,11-51.91,27.17-64.86,33.46-24.48,13-44.77-7.64-44.77-23.38,0-12.22,7.62-20.51,18.52-26.6,29.52-17.9,91.75-52.83,117.67-66.6,15.75-8.38,27.1-9.1,48.73,9.12,26.64,22.41,50.35,42.83,50.35,42.83s7.73,6.45,20.06,3.85C439.13,128.68,486.62,118,486.62,118ZM168.1,367.3c4-10.24,2.65-21.69-5-29.55-6.86-7-16.89-8.87-26.44-6.68,2.67-9.48,1.19-19.57-5.71-26.69s-16.89-8.9-26.44-6.69c2.65-9.46,1.18-19.55-5.73-26.65C88,260,69.27,260.42,57,272.13s-20,33-9.14,45.49,23.4,4.87,32.94,2.7c-2.65,9.47-10.6,18.27-.81,30.66s23.41,4.87,33,2.72c-2.67,9.43-10.27,19.12-.86,30.6s25.07,5.39,35.35,2.19c-4,10.2-12.46,21.2-1.55,33.52s36.06,6.66,48.36-5.07,13.44-30.31,2.65-41.44C189.43,365.86,178.34,364.09,168.1,367.3Zm224.34-75.36c-88.88-88.88-47.07-47.06-94.9-95,0,0-14.38-14.31-33.33-6-13.3,5.83-30.42,13.77-43.3,19.84-14.16,7.42-24.35,9.72-29.13,9.69A49.42,49.42,0,0,1,165.66,129c19.75-13.67,65.21-37.85,65.21-37.85S217,73.61,186.69,73.61,93,115.12,93,115.12s-18,11.52-43.6,1.15L0,99.07V270.75s14.1,4.08,26.77,9.25a56.59,56.59,0,0,1,13.89-21.92c21-20,55.87-20.23,75-.54a47.32,47.32,0,0,1,11.83,21,47.89,47.89,0,0,1,20.3,12.37,47.25,47.25,0,0,1,11.85,21,48,48,0,0,1,20.3,12.4,48.57,48.57,0,0,1,12.54,23A48.56,48.56,0,0,1,213.65,360c11.5,11.81,15.58,27.83,13.1,43.28a.09.09,0,0,1,.08,0c.19.25,7.12,8,11.45,12.34a21.79,21.79,0,1,0,30.81-30.81c-.31-.31-30.57-32-28.14-34.42s41,37.69,41.7,38.42a21.77,21.77,0,0,0,30.79-30.79c-.41-.4-2.15-2.06-2.79-2.72,0,0-38.24-34.06-35.33-37s50.44,41.39,50.52,41.39a21.5,21.5,0,0,0,31-29.73c-.15-.45-36.2-38.12-33.39-41S362,322.92,362,323a21.79,21.79,0,0,0,30.79-30.83C392.71,292.09,392.55,292,392.44,291.94Z" transform="translate(0 -73.61)"/></svg>