<svg xmlns="http://www.w3.org/2000/svg" viewBox="0 0 30.18 30.18">
  <defs>
    <style>
      .cls-1 {
        fill: #fff;
      }

      .cls-2 {
        fill: #231f20;
      }
    </style>
  </defs>
  <title>icon_usgbc_member</title>
  <g id="Layer_2" data-name="Layer 2">
    <g id="Layer_1-2" data-name="Layer 1">
      <g>
        <path class="cls-1" d="M30,15.09A14.86,14.86,0,1,1,15.09.23,14.86,14.86,0,0,1,30,15.09"/>
        <path class="cls-2" d="M15.09,0A15.09,15.09,0,1,0,30.18,15.09,15.1,15.1,0,0,0,15.09,0m0,29.61A14.52,14.52,0,1,1,29.61,15.09,14.52,14.52,0,0,1,15.09,29.61"/>
        <path class="cls-2" d="M21.69,17.16c.14-.07,1.87-.6,1.47-1.63-.28-.73-.81.13-1.19-.15-.12-.09-.19-.16.33-.67A2.1,2.1,0,0,0,23,13.53c.05-.32.05-.56-.16-.68s-.5.2-.59-.13,0-.28,0-.6-.36-1.21-1.19-.92c-.53.19-.25,1.11-.39,1.29s-.26-.37-.56-.46a.49.49,0,0,0-.59.52,5.79,5.79,0,0,0,.26,1.07,2.09,2.09,0,0,1,.07.77c-.08.21-.16.14-.36-.12s-.08-.13-.39-.51-.62.19-.64.63.3,2,.3,2.16c0,.92-.54-.13-.55-.16-.34-.5-1-.27-.78.28a3.7,3.7,0,0,1,.35,2.71c-.05.11-.11.31-.19.51a13.27,13.27,0,0,0,3.59-6.27.11.11,0,0,1,.12-.06s.05.08,0,.12a12.58,12.58,0,0,1-5.84,8.17c-.11.06-.12,0-.15-.11,0-.85.06-1.43.38-1.62,2.65-1.57,1.79-2.3,1.24-2.41a.74.74,0,0,1-.11-1.39c1.34-.75,2-3.43.36-2.84-.15,0-1.24.58-.28-1.07s.63-3.1-.31-2.47c-.25.17-1,.91-.81-.16.25-1.63-.15-2.2-.63-2.31h-.13l-.13,0c-.48.11-.88.68-.63,2.31.14,1.07-.56.33-.81.16-.94-.63-1.22.83-.31,2.47s-.13,1.08-.28,1.07c-1.66-.59-1,2.09.36,2.84a.74.74,0,0,1-.11,1.39c-.55.11-1.41.84,1.24,2.41.32.19.36.77.38,1.63,0,.1,0,.16-.15.1a12.59,12.59,0,0,1-5.83-8.17.1.1,0,0,1,.05-.12s.09,0,.1.09a13.36,13.36,0,0,0,3.6,6.24c-.09-.2-.15-.4-.2-.51a3.75,3.75,0,0,1,.35-2.71c.2-.55-.44-.78-.77-.28,0,0-.53,1.08-.55.16,0-.2.32-1.73.3-2.16s-.27-1.1-.65-.63-.22.28-.39.51-.27.33-.36.12a2.09,2.09,0,0,1,.07-.77,5.08,5.08,0,0,0,.26-1.07.49.49,0,0,0-.59-.52c-.3.09-.42.64-.56.46s.15-1.1-.39-1.29c-.83-.29-1.19.57-1.18.92a2.45,2.45,0,0,1,0,.6c-.08.33-.37,0-.59.13s-.21.36-.16.68a2.1,2.1,0,0,0,.74,1.18c.52.51.45.58.33.67-.38.28-.91-.58-1.19.15-.4,1,1.33,1.56,1.47,1.63.37.17.57.58.07.46-.2-.05-.52-.2-.76.07-.64.72,1,2,2.15,2.2a12.64,12.64,0,0,1,2.53.85c.41.19,2.18,1.4,2.31,1.89,0,.15.1.25.27.25a.26.26,0,0,0,.28-.24c.11-.48,1.89-1.71,2.3-1.9a12.64,12.64,0,0,1,2.53-.85c1.12-.23,2.79-1.48,2.15-2.2-.24-.27-.55-.12-.76-.07-.5.12-.3-.29.07-.46m-6.47,5.11s0,.1-.09.1-.07-.1-.07-.1S15,18.81,15,16.44s.06-5,.06-5,0-.1.08-.1.08.1.08.1.06,2.58.06,5-.06,5.83-.06,5.83"/>
        <path class="cls-2" d="M15.09,1.1a14,14,0,1,0,14,14,14,14,0,0,0-14-14M27.69,14v.39l-1.18.77-.08.05h.23l1,0v.4l-2,0V15.3l1.21-.81.05,0h-.22l-1.06,0v-.4l2-.05Zm-.44-2.43.09.4-1.14.25a.55.55,0,0,0-.37.21.34.34,0,0,0,0,.27A.34.34,0,0,0,26,13a.49.49,0,0,0,.39,0l1.16-.25.09.4-1.15.25a.77.77,0,0,1-1-.59c-.11-.48.15-.83.7-1l1.09-.24ZM26.69,10a.86.86,0,0,1,0,.63,1.26,1.26,0,0,1-1.5.65.82.82,0,0,1-.45-.43.81.81,0,0,1,0-.63,1.08,1.08,0,0,1,.63-.59.93.93,0,0,1,1.31.37m-3-1.39a1.16,1.16,0,0,1,.52-.7.92.92,0,0,1,1.35.13.75.75,0,0,1,.08.81l0,0-.38-.17,0-.06a.35.35,0,0,0,0-.4A.39.39,0,0,0,25,8.13a.71.71,0,0,0-.53.16c-.34.22-.44.49-.28.73a.4.4,0,0,0,.39.19h.06v.4H24.6a.78.78,0,0,1-.72-.37.8.8,0,0,1-.14-.61m-.38-3.11a.76.76,0,0,1,.29.76l0,0-.4-.06V6.22a.35.35,0,0,0-.13-.38.38.38,0,0,0-.3-.1.74.74,0,0,0-.47.29.71.71,0,0,0-.21.51.35.35,0,0,0,.14.27.39.39,0,0,0,.28.11.36.36,0,0,0,.21-.11l-.23-.2.26-.3.55.48L23.14,7a.85.85,0,0,1-.58.33A.77.77,0,0,1,22,7.12a.79.79,0,0,1-.29-.55A1.15,1.15,0,0,1,22,5.76a1.13,1.13,0,0,1,.76-.43.75.75,0,0,1,.58.2m-2.7-1.78.33.19.06,1.41v.09l.11-.2.52-.91.35.2L21,6.3l-.32-.18-.07-1.46V4.6l-.11.2L20,5.72l-.34-.2,1-1.72ZM19.5,3.34l0-.06.38.15-.74,1.9-.38-.15Zm-2.19-.62,0-.06.56.14A.92.92,0,0,1,18.62,4a.93.93,0,0,1-1.2.76l-.57-.14Zm-2.1-.18V2.47l.41,0s-.09,1.52-.1,1.63l1,0,0,.41-1.37-.08Zm-.83,0h.06l.14,2-.41,0-.13-2Zm-2.29.34L12.33,4c.07.32.23.45.48.4s.36-.13.27-.54l-.24-1.16.34-.07.06,0,.24,1.16a.92.92,0,0,1-.08.71.76.76,0,0,1-.51.32.75.75,0,0,1-.58-.08.94.94,0,0,1-.37-.63l-.25-1.15Zm-1.81.6a.61.61,0,0,1,.49,0,.53.53,0,0,1,.29.3.48.48,0,0,1,0,.2.47.47,0,0,1-.09.22.51.51,0,0,1,.45.32.79.79,0,0,1,.06.29.48.48,0,0,1,0,.2.72.72,0,0,1-.43.38l-.75.33L9.5,3.78ZM6.91,5.51,8.24,6l.08,0-.14-.17L7.52,5l.27-.21,0,0L9.11,6.36l-.28.23L7.45,6.12l-.06,0,.14.17.66.82-.31.26L6.61,5.76ZM6,6.39l0,0,.3.26-.61.72L6,7.55l.36-.42.31.26-.36.42.36.32.65-.75.3.26L6.67,8.7,5.13,7.37ZM2.66,12.94a.74.74,0,0,1,.5-.63l0,0,.16.38-.06,0a.34.34,0,0,0-.25.31.39.39,0,0,0,.06.3.72.72,0,0,0,.49.25c.41.07.66-.05.71-.34a.28.28,0,0,0,0-.09.32.32,0,0,0-.06-.2.32.32,0,0,0-.2-.13L4,13.1,3.63,13l.12-.72.28,0a.89.89,0,0,1,.58.33.78.78,0,0,1,.11.59.8.8,0,0,1-.32.53,1.15,1.15,0,0,1-.86.15,1.12,1.12,0,0,1-.75-.42.79.79,0,0,1-.15-.46.77.77,0,0,1,0-.15m2.23,4.74a.29.29,0,0,1-.2.34.29.29,0,0,1-.34-.2.28.28,0,1,1,.54-.14m-.32-2.49a.28.28,0,0,1-.27.28A.29.29,0,0,1,4,15.2a.29.29,0,0,1,.28-.28.27.27,0,0,1,.28.27m-2,1.46a.93.93,0,0,1,.19-.7l0,0,.32.25,0,.05a.51.51,0,0,0-.11.42.29.29,0,0,0,.09.21l.12,0c.08,0,.13-.05.19-.41s.15-.68.55-.72a.56.56,0,0,1,.46.11.79.79,0,0,1,.27.57,1,1,0,0,1-.24.77l0,0L4.06,17l0,0a.67.67,0,0,0,.15-.48c0-.3-.16-.32-.26-.31s-.15.08-.21.42-.14.66-.54.71a.54.54,0,0,1-.41-.11.69.69,0,0,1-.26-.5m2.11,3.2-1.1.41-.15-.38,1.09-.41a.56.56,0,0,0,.34-.26.36.36,0,0,0,0-.27c-.06-.15-.19-.34-.58-.19l-1.11.41L3,18.78l1.11-.41a.76.76,0,0,1,1.11.43.77.77,0,0,1-.56,1.05m.65-8.79-.84.09-.12.31.71.27-.14.38L3,11.39l.32-.84a.6.6,0,0,1,.83-.41.58.58,0,0,1,.42.57h0l.89-.1ZM4,9.18l.67-1.11,0-.05L5,8.23,4.51,9l.3.18.28-.47.35.2-.29.48.42.25c0-.1.51-.85.51-.85l.34.2-.72,1.2Zm11.14,15a9.11,9.11,0,1,1,9.11-9.11,9.11,9.11,0,0,1-9.11,9.11m11.56-4-1.49-.68-.4.87-.36-.17L24.94,19,25,19l1.85.85Zm.43-1.11-1.95-.61.11-.33v-.06l1.95.61Zm.47-1.78a.74.74,0,0,1-.5.63l-.05,0-.16-.38.05,0a.34.34,0,0,0,.26-.3.41.41,0,0,0-.06-.31.77.77,0,0,0-.5-.25c-.4-.07-.66.06-.7.34a.38.38,0,0,0,.14.4l0,0-.28.3,0,0a.79.79,0,0,1-.28-.77.92.92,0,0,1,1.18-.68,1.13,1.13,0,0,1,.76.43.78.78,0,0,1,.13.6"/>
        <path class="cls-2" d="M10.51,5.15,10.92,5a.28.28,0,0,0,.18-.15v-.2L11,4.48a.25.25,0,0,0-.22,0l-.43.18.21.47"/>
        <path class="cls-2" d="M4,10.53a.23.23,0,0,0-.33.16l-.17.46.46.18c0-.09.18-.47.18-.47a.51.51,0,0,0,0-.13.19.19,0,0,0-.16-.2"/>
        <path class="cls-2" d="M25.1,10.54a.38.38,0,0,0,0,.17c.12.27.4.33.77.17a.75.75,0,0,0,.42-.37.38.38,0,0,0,0-.31c-.11-.27-.39-.33-.77-.16s-.44.3-.44.5"/>
        <path class="cls-2" d="M18,4.35a.68.68,0,0,0,.26-.42,1,1,0,0,0,0-.23.47.47,0,0,0-.07-.27.55.55,0,0,0-.38-.24l-.17,0c0,.1-.26,1.1-.29,1.2l.17,0a.57.57,0,0,0,.45,0"/>
        <path class="cls-2" d="M10.71,4a.19.19,0,0,0,0-.08.18.18,0,0,0-.26-.1L10,4c0,.07.11.27.15.35l.41-.18c.11-.05.14-.11.14-.17"/>
        <path class="cls-1" d="M8.65,26l.48-.72.29-.42-.35.23-1,.61.18-1.14c0-.14.06-.32.08-.41l-.28.43-.47.72-.39-.25,1.3-2,.37.25L8.7,24.5c0,.14-.06.33-.08.41L9,24.67l1-.62.39.25-1.3,2Z"/>
        <polygon class="cls-1" points="10.13 26.76 10.92 24.55 12.45 25.09 12.3 25.52 11.21 25.14 11.07 25.52 11.71 25.74 11.55 26.17 10.92 25.95 10.73 26.48 11.87 26.89 11.72 27.32 10.13 26.76"/>
        <path class="cls-1" d="M14.5,27.74l.09-.85c0-.13,0-.43.05-.52,0,.09-.13.25-.2.37l-.57,1-.38-1.09a3.35,3.35,0,0,1-.12-.4c0,.09,0,.39,0,.52l-.08.85-.46,0L13,25.24l.45.05.38,1.1c.05.14.1.32.13.41,0-.09.12-.25.19-.38l.57-1,.46,0L15,27.79Z"/>
        <path class="cls-1" d="M17.21,27.57l-1.05.16-.36-2.32,1.06-.16c.45-.07.77.1.83.5a.48.48,0,0,1-.17.48.55.55,0,0,1,.4.46.73.73,0,0,1-.71.88m-.3-1.89-.59.09.07.44.61-.1c.19,0,.25-.13.23-.26s-.12-.2-.32-.17m.16.84-.62.1.09.6.62-.1a.29.29,0,0,0,.29-.35c0-.2-.16-.28-.38-.25"/>
        <polygon class="cls-1" points="19.07 27.13 18.2 24.95 19.71 24.34 19.88 24.77 18.8 25.2 18.95 25.58 19.58 25.33 19.75 25.75 19.12 26 19.34 26.53 20.46 26.08 20.63 26.5 19.07 27.13"/>
        <path class="cls-1" d="M22.57,25.31l-.82-.47-.4.27.48.7-.39.26-1.32-1.94.91-.61a.72.72,0,0,1,1.08.16.66.66,0,0,1,0,.82L23,25ZM21.28,23.9l-.51.34.34.5.5-.34a.29.29,0,0,0,.11-.44c-.12-.18-.27-.18-.44-.06"/>
        <path class="cls-2" d="M26.72,25.83a.63.63,0,1,1-.63.62.62.62,0,0,1,.63-.62m0,.1a.5.5,0,0,0-.51.52.51.51,0,1,0,.51-.52m-.14.88h-.11V26.1h.28c.17,0,.25.06.25.2a.19.19,0,0,1-.18.2l.2.31H26.9l-.19-.31h-.13Zm0-.4h.14c.13,0,.17,0,.17-.12s0-.11-.16-.11h-.15Z"/>
      </g>
    </g>
  </g>
</svg>
