<svg xmlns="http://www.w3.org/2000/svg" viewBox="0 0 42.86 9.58">
  <defs>
    <style>
      .cls-1 {
        fill: #231f20;
      }
    </style>
  </defs>
  <title>icon_declare</title>
  <g id="Layer_2" data-name="Layer 2">
    <g id="Layer_1-2" data-name="Layer 1">
      <g>
        <path class="cls-1" d="M36.07,5.94A1.15,1.15,0,0,0,35,4.76a1.23,1.23,0,0,0-1.22,1.18ZM33.73,7A1.23,1.23,0,0,0,35,8.31a1.13,1.13,0,0,0,1.08-.64h1.76A2.72,2.72,0,0,1,35,9.58a2.9,2.9,0,0,1-3.16-3.07,3,3,0,0,1,3.11-3C37,3.48,38.05,5,38,7Z"/>
        <path class="cls-1" d="M28.26,3.65h1.83v1h0a1.71,1.71,0,0,1,1.73-1.12,2.35,2.35,0,0,1,.45,0V5.3a2.64,2.64,0,0,0-.73-.11,1.33,1.33,0,0,0-1.42,1.37V9.42H28.26Z"/>
        <path class="cls-1" d="M24.68,8.42c.9,0,1.2-.5,1.15-1.7A7.06,7.06,0,0,1,24.67,7c-.44.1-.78.27-.78.73s.35.66.79.66m-2.45-3a1.77,1.77,0,0,1,.9-1.55A3.72,3.72,0,0,1,25,3.48c1.37,0,2.69.3,2.69,1.93V7.94a3.4,3.4,0,0,0,.22,1.48H26a2.07,2.07,0,0,1-.11-.55,2.55,2.55,0,0,1-1.9.71c-1.11,0-2-.55-2-1.74,0-1.87,2.05-1.74,3.36-2,.32-.08.5-.18.5-.54s-.52-.6-.91-.6a.85.85,0,0,0-.95.73Z"/>
        <rect class="cls-1" x="19.8" y="1.48" width="1.89" height="7.94"/>
        <path class="cls-1" d="M17.64,5.76a.88.88,0,0,0-.92-.83c-1.06,0-1.22.89-1.22,1.7s.32,1.51,1.12,1.51a1,1,0,0,0,1.08-1h1.83a2.68,2.68,0,0,1-2.9,2.43,2.86,2.86,0,0,1-3-2.95,2.92,2.92,0,0,1,3-3.15,2.6,2.6,0,0,1,2.85,2.28Z"/>
        <path class="cls-1" d="M11.62,5.94a1.17,1.17,0,0,0-1.13-1.18A1.24,1.24,0,0,0,9.27,5.94ZM9.27,7a1.23,1.23,0,0,0,1.29,1.32,1.12,1.12,0,0,0,1.08-.64h1.77a2.73,2.73,0,0,1-2.87,1.91A2.9,2.9,0,0,1,7.38,6.51a3,3,0,0,1,3.11-3c2.07,0,3.11,1.56,3,3.51Z"/>
        <path class="cls-1" d="M2.07,7.64h1C4.61,7.61,5.24,7,5.24,5.4A1.92,1.92,0,0,0,3.05,3.26h-1ZM0,1.48H3.41A3.6,3.6,0,0,1,7.3,5.42c0,2.6-1.47,4-3.89,4H0Z"/>
        <path class="cls-1" d="M40.81,1.81a4.27,4.27,0,0,1,0-1h0a4.26,4.26,0,0,0,0,1h0"/>
        <path class="cls-1" d="M40.58,1.68A2.81,2.81,0,0,1,39.83.16h0a2.74,2.74,0,0,0,.75,1.52h0"/>
        <path class="cls-1" d="M40.58,1.68h0l.23.13h0l-.23-.13"/>
        <path class="cls-1" d="M39.65.39h0a2.65,2.65,0,0,0,.94,1.3h0a2.75,2.75,0,0,1-.94-1.3"/>
        <path class="cls-1" d="M40.81,1.8h0a3.1,3.1,0,0,0,1.69-.47h0a3.19,3.19,0,0,1-1.69.47h0"/>
        <path class="cls-1" d="M40.58,1.68h0a.38.38,0,0,0,.13.09l.09,0h0l-.09,0-.14-.1"/>
        <path class="cls-1" d="M39.59,1.16a2,2,0,0,0,1.22.64h0a2.06,2.06,0,0,1-1.22-.65h0"/>
        <path class="cls-1" d="M40.8,1.8h0A4.19,4.19,0,0,0,42.42.93h0a4,4,0,0,1-1.61.88h0"/>
        <path class="cls-1" d="M40.8,1.81h0a2.14,2.14,0,0,0,1.81.29h0a2.16,2.16,0,0,1-1.82-.28"/>
        <path class="cls-1" d="M40.81,1.8a2.78,2.78,0,0,0,2-.34h0a2.8,2.8,0,0,1-2,.35h0"/>
        <path class="cls-1" d="M40.81,1.81A3.24,3.24,0,0,1,40.3,0h0a3.32,3.32,0,0,0,.51,1.78h0"/>
        <path class="cls-1" d="M40.8,1.81h0a4.79,4.79,0,0,1,.8-.91h0a4.6,4.6,0,0,0-.81.91h0"/>
        <path class="cls-1" d="M42.35,2.43a1.69,1.69,0,0,1-1.55-.61v0h0a0,0,0,0,1,0,0,1.7,1.7,0,0,0,1.55.6h0l0,0h0"/>
        <path class="cls-1" d="M40.79,1.8a2.74,2.74,0,0,1,.15-.58,2.56,2.56,0,0,1,.27-.55h0s0,0,0,0l0,0h0a2.77,2.77,0,0,0-.28.54,3.51,3.51,0,0,0-.14.58h0v0"/>
        <path class="cls-1" d="M40.8,1.81A4.74,4.74,0,0,1,40.46.13h0v0a4.63,4.63,0,0,0,.34,1.66v0h0"/>
        <path class="cls-1" d="M39.78.42l0,0a3,3,0,0,0,.79,1.27l0,0A3.39,3.39,0,0,1,39.78.42"/>
        <path class="cls-1" d="M40.79,1.81s0,0,0,0a2.3,2.3,0,0,0,2,0v0a2.3,2.3,0,0,1-2,0"/>
        <path class="cls-1" d="M40.8,1.79a2.47,2.47,0,0,0,2.06-.19v0a2.53,2.53,0,0,1-2.07.18,0,0,0,0,0,0,0"/>
        <path class="cls-1" d="M40.79,1.8h0A7.48,7.48,0,0,0,42,.85h0a0,0,0,0,1,0,0,7.1,7.1,0,0,1-1.16,1h0l0,0"/>
        <path class="cls-1" d="M40.8,1.79h0a2.44,2.44,0,0,0,1.86-.38h0v0h0a2.5,2.5,0,0,1-1.86.39h0v0"/>
        <path class="cls-1" d="M40.22,2.06a6.07,6.07,0,0,0,.59-.27l0,0c-.21.11-.41.2-.6.28v0"/>
        <path class="cls-1" d="M39.6.62s0,0,0,0a2.34,2.34,0,0,0,1.13,1.17v0A2.34,2.34,0,0,1,39.6.62"/>
        <path class="cls-1" d="M40.8,1.82A2.76,2.76,0,0,1,40,0V0h0V0a2.76,2.76,0,0,0,.86,1.78h0l0,0a0,0,0,0,0,0,0"/>
        <path class="cls-1" d="M40.8,1.8a1.87,1.87,0,0,1,.07-.22,3.51,3.51,0,0,1,.37-.72h0s0,0,0,0h0a3.16,3.16,0,0,0-.36.71,2,2,0,0,0-.08.22h0s0,0,0,0"/>
        <path class="cls-1" d="M39.24,5.54a.29.29,0,0,1,.08-.07c.08-.26.18-.56.29-.87.48-1.3,1.19-2.77,1.19-2.77l0,0s-.18.37-.41.9S39.9,4,39.66,4.62c-.11.3-.21.59-.29.85t0,.09c0,.16-.12.49-.14.64,0,0-.06,0-.08-.18a.94.94,0,0,1,.06-.48"/>
      </g>
    </g>
  </g>
</svg>
