<svg xmlns="http://www.w3.org/2000/svg" viewBox="0 0 25.72 34.85">
  <defs>
    <style>
      .cls-1 {
        fill: #94c947;
      }

      .cls-2, .cls-4 {
        fill: #fff;
      }

      .cls-3, .cls-5 {
        fill: none;
        stroke: #fff;
        stroke-miterlimit: 10;
      }

      .cls-3 {
        stroke-width: 0.4px;
      }

      .cls-4 {
        fill-rule: evenodd;
      }

      .cls-5 {
        stroke-width: 0.27px;
      }
    </style>
  </defs>
  <title>icon_greenguard_gold</title>
  <g id="Layer_2" data-name="Layer 2">
    <g id="Layer_1-2" data-name="Layer 1">
      <g>
        <path class="cls-1" d="M4.72,34.85A4.75,4.75,0,0,1,0,30.1V4.75A4.75,4.75,0,0,1,4.72,0H20.94a4.75,4.75,0,0,1,4.72,4.75V30.1a4.75,4.75,0,0,1-4.72,4.75Z"/>
        <path class="cls-2" d="M2.78,29.06c-.36,0-.43-.19-.43-.38V28h.16v.72c0,.15.05.27.28.27s.29-.08.29-.3V28h.15v.68a.39.39,0,0,1-.45.43"/>
        <polygon class="cls-2" points="3.54 29.05 3.54 27.95 3.69 27.95 3.69 28.92 4.1 28.92 4.1 29.05 3.54 29.05"/>
        <path class="cls-2" d="M4.62,29.05v-.12l.21-.24c.19-.21.24-.32.24-.43a.18.18,0,0,0-.2-.19.44.44,0,0,0-.22.07l0-.14a.73.73,0,0,1,.28-.06.29.29,0,0,1,.32.29.77.77,0,0,1-.27.51l-.15.17h.47v.14Z"/>
        <path class="cls-2" d="M5.82,29.06c-.23,0-.35-.11-.35-.27s.11-.23.23-.3c-.13-.07-.21-.15-.21-.27s.15-.29.36-.29.33.12.33.26-.1.21-.22.28c.14.08.25.16.25.3s-.18.29-.39.29m0-.51c-.1.06-.19.13-.19.22s.08.17.21.17.21-.06.21-.16-.11-.17-.23-.23m0-.5c-.12,0-.2.06-.2.16s.08.14.2.2.18-.13.18-.2a.16.16,0,0,0-.18-.16"/>
        <polygon class="cls-2" points="6.61 29.05 6.61 28.1 6.39 28.18 6.37 28.05 6.64 27.95 6.76 27.95 6.76 29.05 6.61 29.05"/>
        <path class="cls-2" d="M7.38,29.06c-.23,0-.35-.11-.35-.27s.11-.23.23-.3c-.14-.07-.21-.15-.21-.27s.14-.29.36-.29.33.12.33.26-.1.21-.22.28c.14.08.24.16.24.3s-.17.29-.38.29m0-.51c-.1.06-.19.13-.19.22s.08.17.21.17.2-.06.2-.16-.1-.17-.22-.23m0-.5c-.12,0-.2.06-.2.16s.08.14.2.2.18-.13.18-.2a.16.16,0,0,0-.18-.16"/>
        <line class="cls-3" x1="0.06" y1="30.28" x2="25.72" y2="30.28"/>
        <path class="cls-2" d="M10.7,33.52a.74.74,0,0,1-.81-.8.81.81,0,0,1,.87-.88,1.33,1.33,0,0,1,.45.07l0,.2a1.26,1.26,0,0,0-.43-.08.58.58,0,0,0-.61.65.57.57,0,0,0,.6.65.78.78,0,0,0,.28,0v-.62h.22v.77a1.6,1.6,0,0,1-.53.09"/>
        <path class="cls-2" d="M12.25,33.52c-.49,0-.72-.33-.72-.82a.77.77,0,0,1,.77-.86c.49,0,.72.32.72.82a.78.78,0,0,1-.77.86m0-1.49c-.29,0-.52.23-.52.64s.17.65.51.65.52-.22.52-.63-.17-.66-.51-.66"/>
        <polygon class="cls-2" points="13.32 33.5 13.32 31.86 13.55 31.86 13.55 33.31 14.13 33.31 14.13 33.5 13.32 33.5"/>
        <path class="cls-2" d="M14.76,33.51h-.41V31.86h.48a.73.73,0,0,1,.83.81.81.81,0,0,1-.9.85M14.81,32h-.24V33.3l.21,0a.59.59,0,0,0,.65-.64c0-.42-.2-.65-.62-.65"/>
        <path class="cls-2" d="M12.73,13.14A4.8,4.8,0,0,0,17.4,9.37a9.55,9.55,0,0,0-9.34,0,4.8,4.8,0,0,0,4.67,3.77"/>
        <polygon class="cls-4" points="14.54 7.55 13.16 7.55 13.16 4.74 13.8 4.74 13.8 6.94 14.54 6.94 14.54 7.55"/>
        <path class="cls-4" d="M12.72,5.74a.76.76,0,0,1-.85.78A.77.77,0,0,1,11,5.74V3.68h.64V5.77a.21.21,0,0,0,.21.24.22.22,0,0,0,.22-.24V3.68h.64Z"/>
        <path class="cls-4" d="M18.57,7.73a5.84,5.84,0,1,1-5.84-5.9,5.87,5.87,0,0,1,5.84,5.9M12.73,2.89a4.84,4.84,0,1,0,4.8,4.84,4.82,4.82,0,0,0-4.8-4.84"/>
        <path class="cls-1" d="M11.78,12.19h0a2.75,2.75,0,0,1,1.9-2.75A3.11,3.11,0,0,0,12.1,12.1l.63-.11a1.71,1.71,0,0,0,1.37-1.62V9l-1.35.25A1.8,1.8,0,0,0,11.34,11v2.79c.11,0,.32,0,.44.05Z"/>
        <path class="cls-2" d="M2.61,22.58H2.5V23H2.35V21.9h.28c.27,0,.41.13.41.32s-.16.37-.43.37m0-.56H2.5v.43h.12c.18,0,.26-.09.26-.23S2.8,22,2.62,22"/>
        <path class="cls-2" d="M3.81,23l-.38-.49h0V23H3.26V21.9h.28c.23,0,.39.08.39.29a.34.34,0,0,1-.34.31,1,1,0,0,1,.1.11L4,23Zm-.29-1H3.41v.37h.1c.16,0,.26-.08.26-.19S3.68,22,3.52,22"/>
        <path class="cls-2" d="M4.64,23c-.34,0-.5-.22-.5-.55a.53.53,0,0,1,.53-.58c.35,0,.51.22.51.55a.53.53,0,0,1-.54.58m0-1a.38.38,0,0,0-.36.43c0,.26.12.43.36.43A.38.38,0,0,0,5,22.45c0-.26-.12-.44-.36-.44"/>
        <path class="cls-2" d="M5.7,23H5.41V21.9h.34c.37,0,.58.17.58.54A.55.55,0,0,1,5.7,23m0-1H5.57v.84h.15a.4.4,0,0,0,.45-.43A.37.37,0,0,0,5.74,22"/>
        <path class="cls-2" d="M7,23c-.36,0-.43-.19-.43-.39V21.9h.16v.71c0,.15,0,.27.28.27s.29-.08.29-.3V21.9h.15v.67A.39.39,0,0,1,7,23"/>
        <path class="cls-2" d="M8.21,23a.48.48,0,0,1-.52-.53.53.53,0,0,1,.56-.58,1.09,1.09,0,0,1,.26,0l0,.14a.75.75,0,0,0-.26,0c-.26,0-.37.19-.37.43s.12.42.39.42a.7.7,0,0,0,.25-.05l0,.13a.91.91,0,0,1-.31.05"/>
        <polygon class="cls-2" points="9.13 22.02 9.13 22.99 8.97 22.99 8.97 22.02 8.65 22.02 8.65 21.9 9.46 21.9 9.46 22.02 9.13 22.02"/>
        <path class="cls-2" d="M10.48,23a.47.47,0,0,1-.51-.53.52.52,0,0,1,.55-.58,1.09,1.09,0,0,1,.26,0l0,.14a.73.73,0,0,0-.25,0c-.26,0-.37.19-.37.43s.12.42.38.42a.7.7,0,0,0,.25-.05l0,.13a1,1,0,0,1-.32.05"/>
        <polygon class="cls-2" points="11.03 22.99 11.03 21.9 11.62 21.9 11.62 22.02 11.19 22.02 11.19 22.37 11.6 22.37 11.6 22.49 11.19 22.49 11.19 22.87 11.62 22.87 11.62 22.99 11.03 22.99"/>
        <path class="cls-2" d="M12.44,23l-.37-.49h0V23H11.9V21.9h.28c.23,0,.39.08.39.29a.34.34,0,0,1-.34.31,1,1,0,0,1,.1.11l.31.39Zm-.29-1h-.1v.37h.1c.16,0,.26-.08.26-.19s-.09-.19-.26-.19"/>
        <polygon class="cls-2" points="13.21 22.02 13.21 22.99 13.06 22.99 13.06 22.02 12.73 22.02 12.73 21.9 13.54 21.9 13.54 22.02 13.21 22.02"/>
        <rect class="cls-2" x="13.73" y="21.9" width="0.15" height="1.09"/>
        <polygon class="cls-2" points="14.35 22.02 14.35 22.38 14.75 22.38 14.75 22.5 14.35 22.5 14.35 22.99 14.19 22.99 14.19 21.9 14.77 21.9 14.77 22.02 14.35 22.02"/>
        <rect class="cls-2" x="15" y="21.9" width="0.15" height="1.09"/>
        <polygon class="cls-2" points="15.46 22.99 15.46 21.9 16.05 21.9 16.05 22.02 15.62 22.02 15.62 22.37 16.02 22.37 16.02 22.49 15.62 22.49 15.62 22.87 16.05 22.87 16.05 22.99 15.46 22.99"/>
        <path class="cls-2" d="M16.61,23h-.29V21.9h.34c.37,0,.59.17.59.54S17,23,16.61,23m0-1h-.17v.84h.15a.4.4,0,0,0,.45-.43.37.37,0,0,0-.43-.42"/>
        <polygon class="cls-2" points="18.02 22.02 18.02 22.38 18.43 22.38 18.43 22.5 18.02 22.5 18.02 22.99 17.87 22.99 17.87 21.9 18.45 21.9 18.45 22.02 18.02 22.02"/>
        <path class="cls-2" d="M19.11,23c-.34,0-.5-.22-.5-.55a.53.53,0,0,1,.54-.58c.34,0,.5.22.5.55a.53.53,0,0,1-.54.58m0-1a.38.38,0,0,0-.36.43c0,.26.12.43.36.43a.37.37,0,0,0,.36-.42c0-.26-.12-.44-.36-.44"/>
        <path class="cls-2" d="M20.43,23l-.37-.49h0V23h-.15V21.9h.28c.22,0,.38.08.38.29a.33.33,0,0,1-.33.31,1,1,0,0,1,.1.11l.31.39Zm-.29-1H20v.37h.1c.16,0,.25-.08.25-.19s-.08-.19-.25-.19"/>
        <polygon class="cls-2" points="2.35 24.93 2.35 23.84 2.51 23.84 2.51 24.8 2.91 24.8 2.91 24.93 2.35 24.93"/>
        <path class="cls-2" d="M3.52,25A.48.48,0,0,1,3,24.4a.54.54,0,0,1,.54-.58.48.48,0,0,1,.51.55.53.53,0,0,1-.54.58m0-1a.37.37,0,0,0-.36.42c0,.26.11.44.36.44s.35-.15.35-.42S3.78,24,3.54,24"/>
        <path class="cls-2" d="M5.39,24.93H5.2L5,24.2A1.29,1.29,0,0,1,5,24h0a.72.72,0,0,1,0,.19l-.21.73H4.51l-.3-1.09h.16l.19.71a2.09,2.09,0,0,1,.05.21h0a1.46,1.46,0,0,1,0-.2l.21-.72H5l.22.73c0,.05,0,.12,0,.19h0l0-.18.2-.74h.15Z"/>
        <path class="cls-2" d="M6.75,25a.48.48,0,0,1-.52-.54.53.53,0,0,1,.56-.58.75.75,0,0,1,.26,0L7,24a.66.66,0,0,0-.25,0c-.26,0-.37.19-.37.43s.12.42.39.42a.7.7,0,0,0,.25,0l0,.13a.9.9,0,0,1-.31.06"/>
        <polygon class="cls-2" points="8.03 24.93 8.03 24.43 7.46 24.43 7.46 24.93 7.3 24.93 7.3 23.84 7.46 23.84 7.46 24.3 8.03 24.3 8.03 23.84 8.19 23.84 8.19 24.93 8.03 24.93"/>
        <polygon class="cls-2" points="8.49 24.93 8.49 23.84 9.08 23.84 9.08 23.96 8.65 23.96 8.65 24.31 9.06 24.31 9.06 24.43 8.65 24.43 8.65 24.81 9.08 24.81 9.08 24.93 8.49 24.93"/>
        <path class="cls-2" d="M10.47,24.93l-.1-.63a1.78,1.78,0,0,1,0-.28h0a1.15,1.15,0,0,1-.06.21l-.24.7H9.87l-.23-.65c0-.09-.06-.18-.08-.26h0a1.43,1.43,0,0,1,0,.29l-.08.62H9.29l.17-1.09h.19l.24.69c0,.06,0,.14.07.22h0l.06-.21.25-.7h.19l.17,1.09Z"/>
        <rect class="cls-2" x="10.87" y="23.84" width="0.15" height="1.09"/>
        <path class="cls-2" d="M11.78,25a.48.48,0,0,1-.51-.54.52.52,0,0,1,.55-.58.75.75,0,0,1,.26,0l0,.13a.73.73,0,0,0-.25,0c-.26,0-.37.19-.37.43s.12.42.38.42a.7.7,0,0,0,.25,0l0,.13a1,1,0,0,1-.32.06"/>
        <path class="cls-2" d="M13,24.93l-.1-.25h-.48l-.1.25h-.15l.41-1.09h.17l.42,1.09Zm-.29-.78A.88.88,0,0,1,12.7,24h0c0,.05,0,.1,0,.15l-.15.41h.4Z"/>
        <polygon class="cls-2" points="13.39 24.93 13.39 23.84 13.54 23.84 13.54 24.8 13.95 24.8 13.95 24.93 13.39 24.93"/>
        <polygon class="cls-2" points="14.51 24.93 14.51 23.84 15.09 23.84 15.09 23.96 14.66 23.96 14.66 24.31 15.07 24.31 15.07 24.43 14.66 24.43 14.66 24.81 15.09 24.81 15.09 24.93 14.51 24.93"/>
        <path class="cls-2" d="M16.48,24.93l-.09-.63c0-.12,0-.21,0-.28h0c0,.06,0,.13-.06.21l-.24.7h-.17l-.23-.65c0-.09-.05-.18-.07-.26h0a1.43,1.43,0,0,1,0,.29l-.07.62h-.16l.17-1.09h.18l.24.69a1.14,1.14,0,0,1,.07.22h0q0-.12.06-.21l.25-.7h.19l.17,1.09Z"/>
        <rect class="cls-2" x="16.89" y="23.84" width="0.16" height="1.09"/>
        <path class="cls-2" d="M17.55,25a1,1,0,0,1-.25,0l0-.15a.6.6,0,0,0,.24.05c.13,0,.24-.05.24-.19s-.51-.15-.51-.49c0-.18.14-.31.4-.31a.68.68,0,0,1,.2,0l0,.13a.63.63,0,0,0-.19,0c-.16,0-.23.07-.23.17s.52.15.52.49-.17.34-.42.34"/>
        <path class="cls-2" d="M18.41,25a.88.88,0,0,1-.24,0v-.15a.69.69,0,0,0,.24.05c.13,0,.25-.05.25-.19s-.51-.15-.51-.49c0-.18.14-.31.39-.31a.75.75,0,0,1,.21,0l0,.13a.64.64,0,0,0-.2,0c-.15,0-.23.07-.23.17s.52.15.52.49-.16.34-.42.34"/>
        <rect class="cls-2" x="19.08" y="23.84" width="0.16" height="1.09"/>
        <path class="cls-2" d="M20,25c-.34,0-.5-.22-.5-.55a.53.53,0,0,1,.53-.58c.35,0,.51.22.51.55A.53.53,0,0,1,20,25m0-1a.37.37,0,0,0-.36.42c0,.26.12.44.36.44a.38.38,0,0,0,.36-.42c0-.27-.12-.44-.36-.44"/>
        <path class="cls-2" d="M21.44,24.93l-.44-.7a1.13,1.13,0,0,1-.12-.21c0,.11,0,.42,0,.61v.3h-.15V23.84H21l.43.69a2.53,2.53,0,0,1,.13.22c0-.14,0-.44,0-.63v-.28h.15v1.09Z"/>
        <path class="cls-2" d="M22.16,25a.9.9,0,0,1-.25,0l0-.15a.59.59,0,0,0,.23.05c.14,0,.25-.05.25-.19s-.51-.15-.51-.49c0-.18.14-.31.39-.31a.75.75,0,0,1,.21,0l0,.13a.64.64,0,0,0-.2,0c-.15,0-.22.07-.22.17s.52.15.52.49-.17.34-.42.34"/>
        <path class="cls-2" d="M2.78,26.89c-.36,0-.43-.19-.43-.38v-.73h.16v.72c0,.15.05.27.28.27s.29-.08.29-.3v-.69h.15v.68a.4.4,0,0,1-.45.43"/>
        <polygon class="cls-2" points="3.54 26.87 3.54 25.78 3.69 25.78 3.69 26.75 4.1 26.75 4.1 26.87 3.54 26.87"/>
        <path class="cls-2" d="M4.32,26.89a.1.1,0,1,1,.1-.1.1.1,0,0,1-.1.1"/>
        <path class="cls-2" d="M5.13,26.89a.48.48,0,0,1-.52-.53.52.52,0,0,1,.55-.59.75.75,0,0,1,.26,0l0,.13a1.09,1.09,0,0,0-.25,0c-.26,0-.37.19-.37.43s.12.43.38.43a.71.71,0,0,0,.25-.06l0,.13a1,1,0,0,1-.31.06"/>
        <path class="cls-2" d="M6.11,26.89a.48.48,0,0,1-.51-.55.53.53,0,0,1,.54-.57.48.48,0,0,1,.51.54.54.54,0,0,1-.54.58m0-1a.37.37,0,0,0-.36.42c0,.26.11.44.35.44a.37.37,0,0,0,.36-.42c0-.26-.12-.44-.35-.44"/>
        <path class="cls-2" d="M8,26.87l-.09-.63c0-.12,0-.21,0-.27h0a1.67,1.67,0,0,0-.06.2l-.24.7H7.39l-.23-.65A1.61,1.61,0,0,1,7.09,26h0a1.59,1.59,0,0,1,0,.29L7,26.87H6.82L7,25.78h.18l.24.69c0,.06,0,.14.07.22h0c0-.08,0-.14.06-.21l.25-.7H8l.17,1.09Z"/>
        <polygon class="cls-2" points="8.4 27.14 8.26 27.14 8.85 25.65 8.99 25.65 8.4 27.14"/>
        <path class="cls-2" d="M9.65,26.89a.51.51,0,0,1-.57-.53.55.55,0,0,1,.61-.59,1.13,1.13,0,0,1,.32.05L10,26a.93.93,0,0,0-.29-.05.39.39,0,0,0-.43.43.38.38,0,0,0,.42.43.64.64,0,0,0,.2,0v-.41H10v.51a1.15,1.15,0,0,1-.37.06"/>
        <path class="cls-2" d="M10.81,26.89a.5.5,0,0,1-.56-.53.55.55,0,0,1,.61-.59,1.13,1.13,0,0,1,.32.05l0,.13a.93.93,0,0,0-.29-.05.4.4,0,0,0-.44.43.39.39,0,0,0,.43.43.64.64,0,0,0,.2,0v-.41h.15v.51a1.16,1.16,0,0,1-.38.06"/>
        <line class="cls-5" x1="1.56" y1="20.3" x2="24.1" y2="20.3"/>
        <path class="cls-2" d="M3.55,18.06a1.06,1.06,0,0,1-1.18-1.15,1.19,1.19,0,0,1,1.3-1.29,2.18,2.18,0,0,1,.66.1l-.09.42a1.6,1.6,0,0,0-.6-.11.73.73,0,0,0-.78.82.7.7,0,0,0,.74.8.9.9,0,0,0,.3,0v-.82h.45v1.13a2.28,2.28,0,0,1-.8.15"/>
        <path class="cls-2" d="M6,18l-.63-1h0v1H4.83V15.66a6.54,6.54,0,0,1,.67,0c.52,0,.85.18.85.67a.67.67,0,0,1-.57.66,2.4,2.4,0,0,1,.18.26l.55.79Zm-.49-2H5.28v.69h.16c.27,0,.44-.14.44-.36S5.74,16,5.46,16"/>
        <polygon class="cls-2" points="6.82 18.02 6.82 15.65 8.09 15.65 8.09 16.04 7.27 16.04 7.27 16.62 8.05 16.62 8.05 16.99 7.27 16.99 7.27 17.63 8.09 17.63 8.09 18.02 6.82 18.02"/>
        <polygon class="cls-2" points="8.54 18.02 8.54 15.65 9.81 15.65 9.81 16.04 8.99 16.04 8.99 16.62 9.77 16.62 9.77 16.99 8.99 16.99 8.99 17.63 9.81 17.63 9.81 18.02 8.54 18.02"/>
        <path class="cls-2" d="M11.61,18l-.73-1.3a3.63,3.63,0,0,1-.21-.47c0,.21,0,.79,0,1.13V18h-.44V15.65h.6l.71,1.28a4,4,0,0,1,.22.47c0-.24,0-.82,0-1.15v-.6h.43V18Z"/>
        <path class="cls-2" d="M13.76,18.06a1.06,1.06,0,0,1-1.19-1.15,1.2,1.2,0,0,1,1.3-1.29,2.25,2.25,0,0,1,.67.1l-.09.42a1.68,1.68,0,0,0-.6-.11.74.74,0,0,0-.79.82.7.7,0,0,0,.75.8.94.94,0,0,0,.3,0v-.82h.45v1.13a2.28,2.28,0,0,1-.8.15"/>
        <path class="cls-2" d="M15.94,18.06c-.74,0-.91-.41-.91-.86V15.66h.45v1.51c0,.3.1.51.49.51s.49-.15.49-.55V15.66h.45V17.1a.86.86,0,0,1-1,1"/>
        <path class="cls-2" d="M18.72,18l-.16-.48h-.89l-.16.48h-.46l.81-2.36h.53L19.22,18Zm-.51-1.55c0-.11-.07-.22-.1-.32h0l-.09.32-.24.71h.67Z"/>
        <path class="cls-2" d="M20.59,18,20,17h0v1h-.45V15.66a6.54,6.54,0,0,1,.67,0c.52,0,.85.18.85.67a.67.67,0,0,1-.58.66,1.57,1.57,0,0,1,.19.26l.55.79Zm-.5-2h-.17v.69h.16c.27,0,.44-.14.44-.36s-.14-.34-.43-.34"/>
        <path class="cls-2" d="M22.11,18l-.66,0V15.66l.76,0A1,1,0,0,1,23.4,16.8,1.17,1.17,0,0,1,22.11,18m.07-2h-.27v1.6l.24,0a.72.72,0,0,0,.76-.82c0-.51-.19-.81-.73-.81"/>
      </g>
    </g>
  </g>
</svg>
