<svg xmlns="http://www.w3.org/2000/svg" viewBox="0 0 34.79 33.29">
  <defs>
    <style>
      .cls-1 {
        fill-rule: evenodd;
      }
    </style>
  </defs>
  <title>water_drops</title>
  <g id="Layer_2" data-name="Layer 2">
    <g id="Layer_1-2" data-name="Layer 1">
      <g>
        <path class="cls-1" d="M19,11.8S9.58,21.92,12,28.6s12.78,6.14,14-1.08S19,11.8,19,11.8ZM15.16,21.91c1.14,4.47,2,6.36,4.52,8.65C14.27,30.56,13,26.05,15.16,21.91Z"/>
        <path class="cls-1" d="M5.15,8.23s-6.54,7-4.88,11.67,8.88,4.26,9.68-.75S5.15,8.23,5.15,8.23Zm-2.67,7c.79,3.1,1.42,4.41,3.14,6C1.86,21.26,1,18.13,2.48,15.26Z"/>
        <path class="cls-1" d="M29.91,0S23.37,7,25,11.67s8.87,4.26,9.68-.75S29.91,0,29.91,0ZM27.24,7c.79,3.1,1.42,4.42,3.14,6C26.62,13,25.75,9.89,27.24,7Z"/>
      </g>
    </g>
  </g>
</svg>
