<svg xmlns="http://www.w3.org/2000/svg" xmlns:xlink="http://www.w3.org/1999/xlink" viewBox="0 0 63.46 92.86"><defs><style>.cls-1{fill:none;}.cls-2{clip-path:url(#clip-path);}.cls-3{fill: #349041;}</style><clipPath id="clip-path" transform="translate(0)"><rect class="cls-1" width="63.46" height="92.86"/></clipPath></defs><title>icon_ulix</title><g id="Layer_2" data-name="Layer 2"><g id="Layer_1-2" data-name="Layer 1"><g class="cls-2"><path class="cls-3" d="M43.66,39.88v0a.92.92,0,0,0-1.05-1H42v2h.65a.94.94,0,0,0,1-1" transform="translate(0)"/><path class="cls-3" d="M0,31V92.86l63.46-31V0Zm46.34,6.31h5v1.63H48.18v1.19H51v1.54H48.18v1.24h3.18v1.63h-5Zm-6.22,0H42.7c1.7,0,2.82.89,2.82,2.51v0c0,1.73-1.26,2.56-2.83,2.58H42v2.09H40.12Zm-20.65,0h1.86v5.55h2.84v1.67H19.47Zm-7,0h1.87v4.38c0,.87.42,1.28,1.06,1.28s1.06-.39,1.06-1.25V37.26h1.88v4.33a2.68,2.68,0,0,1-3,3,2.66,2.66,0,0,1-2.92-3ZM21,54.14c0,3-1.68,4.27-4.18,4.27s-4.14-1.32-4.14-4.22V48h2.65v6.21c0,1.23.6,1.81,1.51,1.81s1.51-.56,1.51-1.77V48H21Zm8.07,4.09H22.4V48H25v7.86h4Zm-1.79-19.3V37.26H32.7v1.67H30.91v5.55H29.06V38.93Zm5.5,19.3H30.14V48h2.63Zm2.27-21,1.21,2.61,1.22-2.61h2l-2.32,4.5v2.72H35.31v-2.7L33,37.26Zm4.72,21-1.58-3.17-1.59,3.17H33.7l3-5.2-2.84-5h2.94l1.45,3,1.49-3h2.88l-2.87,5,3,5.23Zm6.72-9.15H45.36v3.45h-1.2V49.09H43V48h3.43Zm4.9,3.45H50.2V50l-1,1.68h0l-1-1.68v2.57H47.07V48h1.24l.91,1.64L50.14,48h1.23Z" transform="translate(0)"/></g></g></g></svg>