<svg id="Layer_1" data-name="Layer 1" xmlns="http://www.w3.org/2000/svg" xmlns:xlink="http://www.w3.org/1999/xlink" viewBox="0 0 36.66 33.29"><defs><style>.cls-1{fill:none;}.cls-2{clip-path:url(#clip-path);}.cls-3{fill:#349041;stroke:#349041;stroke-miterlimit:10;}</style><clipPath id="clip-path" transform="translate(0.5 0.5)"><rect class="cls-1" width="35.66" height="32.29"/></clipPath></defs><title>icon_download</title><g class="cls-2"><path class="cls-3" d="M17,23.58l.14.07h0a1.78,1.78,0,0,0,1.62-.14l.06,0a2,2,0,0,0,.19-.16l.09-.07,0,0L27,15.35a1.82,1.82,0,1,0-2.58-2.58l-4.79,4.79V1.82a1.82,1.82,0,0,0-3.65,0V17.56l-4.79-4.79a1.82,1.82,0,0,0-2.58,2.58l7.86,7.86,0,0a1.75,1.75,0,0,0,.46.33" transform="translate(0.5 0.5)"/><path class="cls-3" d="M33.66,32.29H2a2,2,0,0,1,0-4H33.66a2,2,0,1,1,0,4" transform="translate(0.5 0.5)"/></g></svg>