<svg id="Layer_1" data-name="Layer 1" xmlns="http://www.w3.org/2000/svg" viewBox="0 0 31.44 88.75"><defs><style>.cls-1,.cls-2{fill:#339044;}.cls-1{fill-rule:evenodd;}</style></defs><title>icon_water</title><path class="cls-1" d="M437.81,134.22a7.69,7.69,0,0,1-7-7.69,16.18,16.18,0,0,1,1.66-5.54l0-.06s-5.6,9.41-5.6,12.5a5.6,5.6,0,0,0,5.07,5.58H433a5.59,5.59,0,0,0,5-4.78Zm-5.38,3.17h-.7a3.69,3.69,0,0,1-3.34-3.67,9.58,9.58,0,0,1,1-3.15,5,5,0,0,0,4.39,6.42A3.66,3.66,0,0,1,432.43,137.39Z" transform="translate(-421.55 -50.25)"/><path class="cls-2" d="M437.27,68.88A10.78,10.78,0,0,1,444.13,71V64.66H430.41V71A10.78,10.78,0,0,1,437.27,68.88Z" transform="translate(-421.55 -50.25)"/><path class="cls-2" d="M449.47,83.63a12.2,12.2,0,1,0-24.4,0c0,.06,0,.11,0,.17h0v19.36h24.4V83.8h0C449.46,83.74,449.47,83.69,449.47,83.63Z" transform="translate(-421.55 -50.25)"/><rect class="cls-2" y="56.35" width="31.44" height="5.36" rx="2.21" ry="2.21"/><path class="cls-2" d="M446.06,51.84h-6.29v-.61a.2.2,0,0,0-.2-.2h-1.64v-.79H436.6V51H435a.2.2,0,0,0-.2.2v.61h-6.29a.84.84,0,1,0,0,1.68h6.29v.61a.2.2,0,0,0,.2.2h1.64v4.13a6.5,6.5,0,0,1,1.33,0V54.33h1.64a.2.2,0,0,0,.2-.2v-.61h6.29a.84.84,0,0,0,0-1.68Z" transform="translate(-421.55 -50.25)"/><path class="cls-2" d="M442.19,62.66a5.47,5.47,0,0,0-9.83,0Z" transform="translate(-421.55 -50.25)"/><path class="cls-1" d="M438.54,114.29s-5.6,9.41-5.6,12.5a5.6,5.6,0,0,0,5.07,5.58h1.06a5.6,5.6,0,0,0,5.07-5.58C444.14,123.7,438.54,114.29,438.54,114.29Zm0,16.47h-.7a3.69,3.69,0,0,1-3.34-3.67,9.58,9.58,0,0,1,1-3.15,5,5,0,0,0,4.39,6.42A3.66,3.66,0,0,1,438.53,130.76Z" transform="translate(-421.55 -50.25)"/></svg>