<svg id="Layer_1" data-name="Layer 1" xmlns="http://www.w3.org/2000/svg" viewBox="0 0 72.82 72.82"><defs><style>.cls-1{fill:#309044;}</style></defs><title>icon_fule_gague</title><path class="cls-1" d="M596.28,128.22a36.41,36.41,0,1,1,36.41-36.41A36.45,36.45,0,0,1,596.28,128.22Zm0-68.32a31.91,31.91,0,1,0,31.91,31.91A31.95,31.95,0,0,0,596.28,59.9Z" transform="translate(-559.87 -55.4)"/><path class="cls-1" d="M571.93,94.86h3v.86h-2v1h1.77v.86h-1.77v1h2v.86h-3Z" transform="translate(-559.87 -55.4)"/><path class="cls-1" d="M617.56,94.54h3v.87h-2v1h1.76v.87h-1.76v1.82h-1Z" transform="translate(-559.87 -55.4)"/><path class="cls-1" d="M616.83,90.48l3.81-.43a24.28,24.28,0,0,0-3.4-10.77l-4.11,2.61a1.46,1.46,0,0,1-1.57-2.47l4-2.56a24.4,24.4,0,0,0-17.32-9.39v6a2,2,0,0,1-4,0v-6a24.4,24.4,0,0,0-17.38,9.47l3.91,2.49a1.46,1.46,0,0,1-1.57,2.47l-4-2.53a24.29,24.29,0,0,0-3.41,12.44h33.61C610.3,91.21,615.17,90.66,616.83,90.48Z" transform="translate(-559.87 -55.4)"/><path class="cls-1" d="M594.59,95.4a3.95,3.95,0,1,0,2.37,7.53c2.08-.65,20.09-10.47,20.09-10.47S596.67,94.75,594.59,95.4Zm1.22,5.35a1.44,1.44,0,1,1,1.44-1.44A1.44,1.44,0,0,1,595.81,100.75Z" transform="translate(-559.87 -55.4)"/></svg>