<svg xmlns="http://www.w3.org/2000/svg" xmlns:xlink="http://www.w3.org/1999/xlink" viewBox="0 0 23.88 33.02"><defs><style>.cls-1{fill:none;}.cls-2{clip-path:url(#clip-path);}.cls-3{fill: #349041;fill-rule:evenodd;}</style><clipPath id="clip-path" transform="translate(0 0)"><rect class="cls-1" width="23.88" height="33.02"/></clipPath></defs><title>timer-icon</title><g id="Layer_2" data-name="Layer 2"><g id="Layer_1-2" data-name="Layer 1"><g class="cls-2"><path class="cls-3" d="M13.31,9.21a11.9,11.9,0,0,1,5,1.75L19.9,9l1.87,1.56-1.57,1.87.17.17a11.94,11.94,0,1,1-9.83-3.42V8H8.66V6.28l-.32-.17a3.11,3.11,0,0,1-1.73-2.6A3.1,3.1,0,0,1,8.34.91,7.21,7.21,0,0,1,12,0a7.21,7.21,0,0,1,3.63.91,3.1,3.1,0,0,1,1.73,2.6,3.11,3.11,0,0,1-1.73,2.6l-.36.2V8H13.31ZM8.66,4.38V4.22h6.59v.2a1.27,1.27,0,0,0,.5-.91,1.61,1.61,0,0,0-.95-1.23A5.64,5.64,0,0,0,12,1.59a5.64,5.64,0,0,0-2.82.68A1.61,1.61,0,0,0,8.2,3.51a1.22,1.22,0,0,0,.46.87M5.84,15.67l1.42,1.42L8,16.38,6.56,15Zm.68,11.51L8,25.75,7.24,25,5.82,26.46ZM18,26.49l-1.43-1.42-.71.71,1.43,1.43Zm2-5.9h-2v1h2ZM12.43,27.2h-1v2h1ZM3.8,21.56h2v-1h-2ZM11.46,15h1v-2h-1Zm2,5.66a1.68,1.68,0,0,0-.27-.43,34.78,34.78,0,0,0,3.61-5.26l-.8-.6a30,30,0,0,0-3.81,5.29,1.75,1.75,0,1,0,.38,3.31,1.86,1.86,0,0,0,.31-.17A16.69,16.69,0,0,0,17.08,24L17.46,23a17.24,17.24,0,0,0-3.87-1.59,1.75,1.75,0,0,0-.15-.77m4.66-5.69a8.71,8.71,0,1,0,2.55,6.16,8.68,8.68,0,0,0-2.55-6.16" transform="translate(0 0)"/></g></g></g></svg>