<svg xmlns="http://www.w3.org/2000/svg" viewBox="0 0 25.08 30.62">
  <title>icon_tank</title>
  <g id="Layer_2" data-name="Layer 2">
    <g id="Layer_1-2" data-name="Layer 1">
      <path class="cls-1" d="M11.43,9.82l6.14-1.49V4.76h6.12v7.85h0V29.05A1.65,1.65,0,0,1,22,30.62H5a1.65,1.65,0,0,1-1.7-1.57V27.17c4.62,1.53,10.46-.69,11.38-6.35a12.41,12.41,0,0,0-.73-6.11,25,25,0,0,0-2.48-4.89ZM6.34,7.06s-8,8.65-6,14.36,10.92,5.24,11.92-.92S6.34,7.06,6.34,7.06ZM3.06,15.7c-1.84,3.53-.77,7.39,3.85,7.39C4.8,21.13,4,19.52,3.06,15.7ZM15.82,0h9.26V3.34H15.82Z"/>
    </g>
  </g>
</svg>
