<svg xmlns="http://www.w3.org/2000/svg" xmlns:xlink="http://www.w3.org/1999/xlink" viewBox="0 0 36.88 41.48"><defs><clipPath id="clip-path" transform="translate(0 -0.34)"><rect class="cls-1" width="36.88" height="41.82"/></clipPath></defs><title>ceiling</title><g id="Layer_2" data-name="Layer 2"><g id="Layer_1-2" data-name="Layer 1"><polygon points="35.56 7.74 35.56 40.31 23.36 36.67 23.36 15.68 22.5 15.68 22.5 36.63 0.86 40.46 1 9.37 0.14 9.37 0 41.48 22.91 37.44 36.42 41.47 36.42 7.74 35.56 7.74"/><polygon points="22.95 7.86 18.61 10.28 23.63 11.97 26.42 10.27 27.67 9.51 22.95 7.86"/><polygon points="16.38 11.52 13.3 13.24 18.84 14.89 19.52 14.48 22.95 12.39 17.88 10.68 16.38 11.52"/><polygon points="28.35 9.09 29.37 8.47 32.75 6.41 28.38 4.82 23.66 7.46 28.35 9.09"/><polygon points="29.1 9.36 30.41 9.81 32.13 10.41 36.42 7.75 33.49 6.68 29.1 9.36"/><polygon points="23.7 12.64 19.63 15.13 22.97 16.12 26.85 13.71 26.09 13.45 23.7 12.64"/><polygon points="31.47 10.83 28.42 9.77 24.39 12.23 27.53 13.29 31.47 10.83"/><polygon points="22.76 2.13 28.33 4.15 31.88 2.17 26.47 0 22.76 2.13"/><polygon points="19.77 6.75 16.63 5.65 16.52 5.72 12.29 8.15 17.82 10.02 22.17 7.59 19.77 6.75"/><polygon points="12.48 12.99 17.1 10.42 11.58 8.56 6.81 11.3 12.48 12.99"/><polygon points="22.89 7.19 27.62 4.55 22.07 2.53 17.34 5.25 22.89 7.19"/><polygon points="0.24 4.09 5.28 5.79 9.79 3.27 8.95 2.97 4.99 1.59 0.24 4.09"/><g class="cls-2"><path d="M26.44,0" transform="translate(0 -0.34)"/></g><polygon points="11.29 3.14 11.4 3.18 16.57 4.98 21.31 2.26 20.65 2.02 16.18 0.41 11.29 3.14"/><polygon points="10.57 3.54 6.06 6.05 11.51 7.89 15.87 5.39 10.57 3.54"/><polygon points="0.19 9.33 6 11.06 10.81 8.3 5.34 6.45 0.19 9.33"/><g class="cls-2"><line class="cls-3" x1="36.88" y1="34.73" x2="36.88" y2="34.73"/></g></g></g></svg>