<svg xmlns="http://www.w3.org/2000/svg" viewBox="0 0 31.47 37.86">
  <title>icon_factory</title>
  <g id="Layer_2" data-name="Layer 2">
    <g id="Layer_1-2" data-name="Layer 1">
      <g>
        <path d="M22.69,24.83V20.31l-8.75,4.5v-4.5L5.36,24.72,4.58,12.87H.78L0,24.74V37.86H31.47V20.31ZM12.24,32.39H6.29V27.87h6Zm8.63,0h-6V27.87h6Zm8.62,0H23.54V27.87h5.95Z"/>
        <path d="M7.34,6.71a1.07,1.07,0,0,0,.31.58,1.05,1.05,0,0,0,.27.2,1.12,1.12,0,0,0,1,1.6A1.35,1.35,0,0,0,9.28,9a1.07,1.07,0,0,0,.87.47h0a3.45,3.45,0,0,0,5.65.55,3.44,3.44,0,0,0,4.83.42,3.12,3.12,0,0,0,1.77.55A3.16,3.16,0,0,0,25.4,9c1.1-.21,1.92-.92,1.92-1.77a1.41,1.41,0,0,0-.27-.81,2.59,2.59,0,0,0-1.39-4.78,2.63,2.63,0,0,0-.8.13,4.21,4.21,0,0,0-6.75-.11,4.22,4.22,0,0,0-2.5-.77,3.84,3.84,0,0,0-3,1.23A2.32,2.32,0,0,0,10.71.87C9.33.87,8.22,2.4,8.2,4.29a1.36,1.36,0,0,0-1.29.39,1.24,1.24,0,0,0-.13,1.74A1,1,0,0,0,7.34,6.71Z"/>
        <path d="M2.75,11.89A.87.87,0,1,0,1.88,11,.88.88,0,0,0,2.75,11.89Z"/>
        <path d="M4.12,9.38a1,1,0,0,0,.35-.06,1.07,1.07,0,0,0,.87.47A1.24,1.24,0,0,0,6.48,8.47,1.25,1.25,0,0,0,5.34,7.14a1,1,0,0,0-.59.2,1.15,1.15,0,0,0-.63-.2,1.12,1.12,0,1,0,0,2.24Z"/>
      </g>
    </g>
  </g>
</svg>
