<svg xmlns="http://www.w3.org/2000/svg" viewBox="0 0 38.63 26"><title>icon_performance</title><g id="Layer_2" data-name="Layer 2"><g id="Layer_1-2" data-name="Layer 1"><path d="M16.74,8.37a10.21,10.21,0,0,0-2-.25c-.5.06-.93,1-1.52,1.12-1.56.45-1.83.38-1.21,1.84Z"/><path d="M37.73,2.3h0A4.64,4.64,0,0,0,31.4.62L10.23,12.91a1.8,1.8,0,0,0-.89,1.58l-4,2.32-.49,8.63,7.93-4.57.05.09a.12.12,0,0,0,.08.06,6,6,0,0,0,3.74-1.13L36,8.62A4.64,4.64,0,0,0,37.73,2.3Zm-31.59,21,.33-5.81,3.26-1.88,2.44,4.21ZM34.35,5.88A1.4,1.4,0,1,1,34.86,4,1.4,1.4,0,0,1,34.35,5.88Z"/><path d="M.59,24.82A.59.59,0,1,0,.59,26H3.37l.08-1.18Z"/><path d="M38,24.82H8.86L6.61,26H38a.59.59,0,1,0,0-1.18Z"/></g></g></svg>