<svg id="Layer_1" data-name="Layer 1" xmlns="http://www.w3.org/2000/svg" viewBox="0 0 60.32 95.77"><defs><style>.cls-1{fill:#319044;}</style></defs><title>icon_co2</title><rect class="cls-1" y="92.59" width="60.32" height="3.18" rx="0.99" ry="0.99"/><path class="cls-1" d="M517.88,78.76l-1.35-17.45a2,2,0,0,0-2-2h-4.72a2,2,0,0,0-2,2l-1.37,17.46Z" transform="translate(-482 -35.57)"/><polygon class="cls-1" points="37.56 64.95 36.03 46.18 24.33 46.18 22.77 64.95 37.56 64.95"/><polygon class="cls-1" points="22.62 67.94 20.93 88.43 39.39 88.43 37.72 67.94 22.62 67.94"/><path class="cls-1" d="M531.49,81.22a1.38,1.38,0,0,0-1.38-1.38h-3.3a1.38,1.38,0,0,0-1.38,1.38l-1,12.19h8Z" transform="translate(-482 -35.57)"/><polygon class="cls-1" points="44.89 89.43 52.89 89.43 51.72 74.42 43.73 74.42 44.89 89.43"/><polygon class="cls-1" points="43.03 65.44 43.03 65.44 43.62 73.03 51.61 73.03 50.54 59.22 42.55 59.22 43.03 65.44"/><path class="cls-1" d="M492.79,80.22a1.38,1.38,0,0,1,1.38-1.38h3.3a1.38,1.38,0,0,1,1.38,1.38l1,12.19h-8Z" transform="translate(-482 -35.57)"/><polygon class="cls-1" points="15.39 88.43 7.39 88.43 8.56 73.42 16.55 73.42 15.39 88.43"/><polygon class="cls-1" points="17.25 64.44 17.25 64.44 16.66 72.03 8.67 72.03 9.74 58.22 17.73 58.22 17.25 64.44"/><path class="cls-1" d="M517.15,47.45a3,3,0,0,0-2.83-3,3,3,0,1,0-5.4,2.47A3.92,3.92,0,1,0,515.63,50,3,3,0,0,0,517.15,47.45Z" transform="translate(-482 -35.57)"/><circle class="cls-1" cx="513.75" cy="39" r="1.5" transform="translate(-480.12 62.13) rotate(-10.88)"/><circle class="cls-1" cx="512.31" cy="36.5" r="0.93" transform="translate(-479.68 61.82) rotate(-10.88)"/><path class="cls-1" d="M531.91,70.8a2.1,2.1,0,0,0-2-2.09,2.1,2.1,0,1,0-3.77,1.73,2.74,2.74,0,1,0,4.69,2.18A2.09,2.09,0,0,0,531.91,70.8Z" transform="translate(-482 -35.57)"/><circle class="cls-1" cx="529.53" cy="64.89" r="1.05" transform="translate(-484.73 65.58) rotate(-10.88)"/><circle class="cls-1" cx="527.53" cy="63.15" r="0.65" transform="translate(-484.43 65.17) rotate(-10.88)"/><path class="cls-1" d="M497.88,69.47a2.11,2.11,0,1,0-3.7-.95,2.09,2.09,0,0,0-.73,4,2.74,2.74,0,1,0,4.43-3Z" transform="translate(-482 -35.57)"/><circle class="cls-1" cx="495.74" cy="64.23" r="1.05" transform="translate(-485.21 59.19) rotate(-10.88)"/><circle class="cls-1" cx="497.39" cy="62.27" r="0.65" transform="translate(-484.81 59.46) rotate(-10.88)"/></svg>