<svg xmlns="http://www.w3.org/2000/svg" viewBox="5342 4219.431 59.465 61.568">
  <defs>
    <style>
      .cls-1 {
        fill: #c41230;
      }
    </style>
  </defs>
  <g id="Group_46" data-name="Group 46" transform="translate(5342 4219.481)">
    <path id="Path_77" data-name="Path 77" class="cls-1" d="M55.743,50.361l-.348-.348a19.254,19.254,0,0,0-5.213-8.34c-3.475-3.475-7.414-5.444-9.846-5.444L21.454,19.2,17.4,23.254l16.333,19c-.579,2.433,1.506,6.835,5.329,10.657,2.9,2.9,5.908,4.749,8.34,5.213l.348.348.232-.348a3.028,3.028,0,0,0,2.9-.7l3.939-3.939a3.453,3.453,0,0,0,.7-2.9Z" transform="translate(2.756 3.049)"/>
    <path id="Path_78" data-name="Path 78" class="cls-1" d="M9.8,12.653,11.538,10.8,21.963,21.226l-1.738,1.738Z" transform="translate(1.552 1.719)"/>
    <path id="Path_79" data-name="Path 79" class="cls-1" d="M6.654,11.593H6.77l3.591,2.78,3.012-3.012L10.593,7.77h0L5.612,3.6,2.6,6.612l4.054,4.981Z" transform="translate(0.412 0.578)"/>
    <path id="Path_80" data-name="Path 80" class="cls-1" d="M58.962,9.507l-9.615,9.615-9.035-9.035L49.927.471a13.24,13.24,0,0,0-15.87,17.955L0,52.483l6.95,6.95L41.007,25.377A13.223,13.223,0,0,0,55.6,22.6,13.505,13.505,0,0,0,58.962,9.507Z" transform="translate(0 0)"/>
  </g>
</svg>
